<?xml version="1.0" encoding="UTF-8"?><!DOCTYPE svg PUBLIC "-//W3C//DTD SVG 1.1//EN" "http://www.w3.org/Graphics/SVG/1.1/DTD/svg11.dtd"><svg xmlns="http://www.w3.org/2000/svg" xmlns:xlink="http://www.w3.org/1999/xlink" version="1.0"  width="24" height="24" viewBox="0 0 24 24"><path d="M4,7 C2.875,7 2,7.80666667 2,8.83333333 L2,18 L4,18 L4,13.4166667 L6,13.4166667 L6,18 L8,18 L8,8.83333333 C8,7.80666667 7.125,7 6,7 L4,7 Z M4,11.5833333 L4,8.83333333 L6,8.83333333 L6,11.5833333 L4,11.5833333 Z M11,7 C9.875,7 9,7.80666667 9,8.83333333 L9,18 L11,18 L11,13.4166667 L13,13.4166667 C14.125,13.4166667 15,12.61 15,11.5833333 L15,8.83333333 C15,7.80666667 14.125,7 13,7 L11,7 Z M11,11.5833333 L11,8.83333333 L13,8.83333333 L13,11.5833333 L11,11.5833333 Z M18,8.83333333 L18,16.1666667 L16,16.1666667 L16,18 L22,18 L22,16.1666667 L20,16.1666667 L20,8.83333333 L22,8.83333333 L22,7 L16,7 L16,8.83333333 L18,8.83333333 Z"></path></svg>